<svg xmlns="http://www.w3.org/2000/svg" xmlns:xlink="http://www.w3.org/1999/xlink" id="terminal" baseProfile="full" viewBox="0 0 784 427" width="784" version="1.1">
    <defs>
        <termtosvg:template_settings xmlns:termtosvg="https://github.com/nbedos/termtosvg">
            <termtosvg:screen_geometry columns="98" rows="25"/>
            <termtosvg:animation type="css"/>
        </termtosvg:template_settings>
        <style type="text/css" id="generated-style"><![CDATA[#screen {
                font-family: 'DejaVu Sans Mono', monospace;
                font-style: normal;
                font-size: 14px;
            }

        text {
            dominant-baseline: text-before-edge;
            white-space: pre;
        }
    
            :root {
                --animation-duration: 25334ms;
            }

            @keyframes roll {
                0.000%{transform:translateY(0px)}
8.897%{transform:translateY(-442px)}
11.230%{transform:translateY(-884px)}
15.205%{transform:translateY(-1326px)}
15.505%{transform:translateY(-1768px)}
15.548%{transform:translateY(-2210px)}
19.946%{transform:translateY(-2652px)}
20.897%{transform:translateY(-3094px)}
21.055%{transform:translateY(-3536px)}
23.103%{transform:translateY(-3978px)}
27.145%{transform:translateY(-4420px)}
27.505%{transform:translateY(-4862px)}
27.540%{transform:translateY(-5304px)}
32.372%{transform:translateY(-5746px)}
44.012%{transform:translateY(-6188px)}
49.061%{transform:translateY(-6630px)}
49.136%{transform:translateY(-7072px)}
52.850%{transform:translateY(-7514px)}
52.921%{transform:translateY(-7956px)}
53.414%{transform:translateY(-8398px)}
53.580%{transform:translateY(-8840px)}
53.983%{transform:translateY(-9282px)}
54.141%{transform:translateY(-9724px)}
55.818%{transform:translateY(-10166px)}
62.702%{transform:translateY(-10608px)}
63.038%{transform:translateY(-11050px)}
63.101%{transform:translateY(-11492px)}
68.844%{transform:translateY(-11934px)}
68.900%{transform:translateY(-12376px)}
88.719%{transform:translateY(-12818px)}
95.986%{transform:translateY(-13260px)}
96.053%{transform:translateY(-13702px)}
100.000%{transform:translateY(-13702px)}
            }

            #screen_view {
                animation-duration: 25334ms;
                animation-iteration-count:infinite;
                animation-name:roll;
                animation-timing-function: steps(1,end);
                animation-fill-mode: forwards;
            }
        ]]></style>
        <style type="text/css" id="user-style">
            /* gjm8 color theme (source: https://terminal.sexy/) */
            .foreground {fill: #c5c5c5;}
            .background {fill: #1c1c1c;}
            .color0 {fill: #1c1c1c;}
            .color1 {fill: #ff005b;}
            .color2 {fill: #cee318;}
            .color3 {fill: #ffe755;}
            .color4 {fill: #048ac7;}
            .color5 {fill: #833c9f;}
            .color6 {fill: #0ac1cd;}
            .color7 {fill: #e5e5e5;}
            .color8 {fill: #1c1c1c;}
            .color9 {fill: #ff005b;}
            .color10 {fill: #cee318;}
            .color11 {fill: #ffe755;}
            .color12 {fill: #048ac7;}
            .color13 {fill: #833c9f;}
            .color14 {fill: #0ac1cd;}
            .color15 {fill: #e5e5e5;}
        </style>
    </defs>
    <svg id="screen" width="784" height="425" viewBox="0 0 784 425" preserveAspectRatio="xMidYMin slice">
        <rect class="background" height="100%" width="100%" x="0" y="0"/><defs><g id="g1"><text class="foreground" textLength="72" x="0">client $ </text><text class="background" textLength="8" x="72"> </text><text class="foreground" textLength="704" x="80">                                                                                        </text></g><g id="g2"><text class="foreground" textLength="784" x="0">                                                                                                  </text></g><g id="g3"><text class="color2" textLength="400" x="0">&#9472;&#9472;&#9472;&#9472;&#9472;&#9472;&#9472;&#9472;&#9472;&#9472;&#9472;&#9472;&#9472;&#9472;&#9472;&#9472;&#9472;&#9472;&#9472;&#9472;&#9472;&#9472;&#9472;&#9472;&#9472;&#9472;&#9472;&#9472;&#9472;&#9472;&#9472;&#9472;&#9472;&#9472;&#9472;&#9472;&#9472;&#9472;&#9472;&#9472;&#9472;&#9472;&#9472;&#9472;&#9472;&#9472;&#9472;&#9472;&#9472;&#9472;</text><text class="foreground" textLength="384" x="400">&#9472;&#9472;&#9472;&#9472;&#9472;&#9472;&#9472;&#9472;&#9472;&#9472;&#9472;&#9472;&#9472;&#9472;&#9472;&#9472;&#9472;&#9472;&#9472;&#9472;&#9472;&#9472;&#9472;&#9472;&#9472;&#9472;&#9472;&#9472;&#9472;&#9472;&#9472;&#9472;&#9472;&#9472;&#9472;&#9472;&#9472;&#9472;&#9472;&#9472;&#9472;&#9472;&#9472;&#9472;&#9472;&#9472;&#9472;&#9472;</text></g><g id="g4"><text class="foreground" textLength="784" x="0">server $                                                                                          </text></g><g id="g5"><text class="color0" textLength="784" x="0">[0] 0:bash*                                                        "coutinhocells" 15:13 18-Oct-19</text></g><g id="g6"><text class="foreground" textLength="784" x="0">client $                                                                                          </text></g><g id="g7"><text class="foreground" textLength="400" x="0">&#9472;&#9472;&#9472;&#9472;&#9472;&#9472;&#9472;&#9472;&#9472;&#9472;&#9472;&#9472;&#9472;&#9472;&#9472;&#9472;&#9472;&#9472;&#9472;&#9472;&#9472;&#9472;&#9472;&#9472;&#9472;&#9472;&#9472;&#9472;&#9472;&#9472;&#9472;&#9472;&#9472;&#9472;&#9472;&#9472;&#9472;&#9472;&#9472;&#9472;&#9472;&#9472;&#9472;&#9472;&#9472;&#9472;&#9472;&#9472;&#9472;&#9472;</text><text class="color2" textLength="384" x="400">&#9472;&#9472;&#9472;&#9472;&#9472;&#9472;&#9472;&#9472;&#9472;&#9472;&#9472;&#9472;&#9472;&#9472;&#9472;&#9472;&#9472;&#9472;&#9472;&#9472;&#9472;&#9472;&#9472;&#9472;&#9472;&#9472;&#9472;&#9472;&#9472;&#9472;&#9472;&#9472;&#9472;&#9472;&#9472;&#9472;&#9472;&#9472;&#9472;&#9472;&#9472;&#9472;&#9472;&#9472;&#9472;&#9472;&#9472;&#9472;</text></g><g id="g8"><text class="foreground" textLength="72" x="0">server $ </text><text class="background" textLength="8" x="72"> </text><text class="foreground" textLength="704" x="80">                                                                                        </text></g><g id="g9"><text class="foreground" textLength="584" x="0">server $ python examples/req-rep/server.py --log-level=debug --port=12345</text><text class="background" textLength="8" x="584"> </text><text class="foreground" textLength="192" x="592">                        </text></g><g id="g10"><text class="foreground" textLength="784" x="0">server $ python examples/req-rep/server.py --log-level=debug --port=12345                         </text></g><g id="g11"><text class="background" textLength="8" x="0"> </text><text class="foreground" textLength="776" x="8">                                                                                                 </text></g><g id="g12"><text class="foreground" textLength="784" x="0">2019-10-18 15:13:43,394 DEBUG: Using selector: EpollSelector                                      </text></g><g id="g13"><text class="foreground" textLength="784" x="0">2019-10-18 15:13:43,397 INFO : started accepting requests on 0.0.0.0:12345                        </text></g><g id="g14"><text class="color0" textLength="784" x="0">[0] 0:python*                                                      "coutinhocells" 15:13 18-Oct-19</text></g><g id="g15"><text class="foreground" textLength="344" x="0">client $ python examples/req-rep/client.py </text><text class="background" textLength="8" x="344"> </text><text class="foreground" textLength="432" x="352">                                                      </text></g><g id="g16"><text class="foreground" textLength="784" x="0">client $ python examples/req-rep/client.py                                                        </text></g><g id="g17"><text class="foreground" textLength="784" x="0">2019-10-18 15:13:46,433 INFO : client connected from ('127.0.0.1', 49938)                         </text></g><g id="g18"><text class="foreground" textLength="784" x="0">Server replies with: b'ACME, bla ble ble, 1234, 5678\n'                                           </text></g><g id="g19"><text class="foreground" textLength="784" x="0">Looks like the server is running. Great!                                                          </text></g><g id="g20"><text class="foreground" textLength="784" x="0">Now, please restart the server...                                                                 </text></g><g id="g21"><text class="foreground" textLength="784" x="0">2019-10-18 15:13:46,433 DEBUG: recv b'*idn?\n'                                                    </text></g><g id="g22"><text class="foreground" textLength="784" x="0">2019-10-18 15:13:46,433 DEBUG: send b'ACME, bla ble ble, 1234, 5678\n'                            </text></g><g id="g23"><text class="foreground" textLength="16" x="0">^C</text><text class="background" textLength="8" x="16"> </text><text class="foreground" textLength="760" x="24">                                                                                               </text></g><g id="g24"><text class="foreground" textLength="784" x="0">Thanks for turning it off!                                                                        </text></g><g id="g25"><text class="foreground" textLength="784" x="0">You now have 5s to turn it back on again.                                                         </text></g><g id="g26"><text class="foreground" textLength="784" x="0">^C2019-10-18 15:13:51,895 INFO : Ctrl-C pressed. Bailing out!                                     </text></g><g id="g27"><text class="background" textLength="8" x="0"> </text></g><g id="g28"><text class="foreground" textLength="480" x="0">2019-10-18 15:13:55,436 DEBUG: Using selector: EpollSelector</text></g><g id="g29"><text class="foreground" textLength="592" x="0">2019-10-18 15:13:55,439 INFO : started accepting requests on 0.0.0.0:12345</text></g><g id="g30"><text class="foreground" textLength="784" x="0">I will now try another request without explicitly reopening the socket                            </text></g><g id="g31"><text class="foreground" textLength="784" x="0">It works! Server replies with: b'ACME, bla ble ble, 1234, 5678\n'                                 </text></g><g id="g32"><text class="foreground" textLength="584" x="0">2019-10-18 15:13:56,908 INFO : client connected from ('127.0.0.1', 49948)</text></g><g id="g33"><text class="foreground" textLength="368" x="0">2019-10-18 15:13:56,908 DEBUG: recv b'*idn?\n'</text></g><g id="g34"><text class="foreground" textLength="560" x="0">2019-10-18 15:13:56,908 DEBUG: send b'ACME, bla ble ble, 1234, 5678\n'</text></g><g id="g35"><text class="foreground" textLength="312" x="0">2019-10-18 15:13:56,909 DEBUG: recv b''</text></g><g id="g36"><text class="foreground" textLength="568" x="0">2019-10-18 15:13:56,909 INFO : client ('127.0.0.1', 49948) disconnected</text></g><g id="g37"><text class="foreground" textLength="560" x="0">2019-10-18 15:13:56,909 DEBUG: send b'ACME, bla ble ble, 1234, 5678\n'</text></g><g id="g38"><text class="color0" textLength="784" x="0">[0] 0:python*                                                      "coutinhocells" 15:14 18-Oct-19</text></g><g id="g39"><text class="foreground" textLength="592" x="0">                                                                          </text></g><g id="g40"><text class="foreground" textLength="584" x="0">                                                                         </text></g><g id="g41"><text class="foreground" textLength="368" x="0">                                              </text></g><g id="g42"><text class="foreground" textLength="560" x="0">                                                                      </text></g><g id="g43"><text class="foreground" textLength="312" x="0">                                       </text></g><g id="g44"><text class="foreground" textLength="568" x="0">                                                                       </text></g><g id="g45"><text class="foreground" textLength="784" x="0">[detached (from session 0)]                                                                       </text></g></defs><g id="screen_view"><g><rect class="foreground" height="17" width="8" x="72" y="0"/><use y="0" xlink:href="#g1"/><use y="17" xlink:href="#g2"/><use y="34" xlink:href="#g2"/><use y="51" xlink:href="#g2"/><use y="68" xlink:href="#g2"/><use y="85" xlink:href="#g2"/><use y="102" xlink:href="#g2"/><use y="119" xlink:href="#g2"/><use y="136" xlink:href="#g2"/><use y="153" xlink:href="#g2"/><use y="170" xlink:href="#g2"/><use y="187" xlink:href="#g2"/><use y="204" xlink:href="#g3"/><use y="221" xlink:href="#g4"/><use y="238" xlink:href="#g2"/><use y="255" xlink:href="#g2"/><use y="272" xlink:href="#g2"/><use y="289" xlink:href="#g2"/><use y="306" xlink:href="#g2"/><use y="323" xlink:href="#g2"/><use y="340" xlink:href="#g2"/><use y="357" xlink:href="#g2"/><use y="374" xlink:href="#g2"/><use y="391" xlink:href="#g2"/><rect class="color2" height="17" width="784" x="0" y="408"/><use y="408" xlink:href="#g5"/></g><g><use y="442" xlink:href="#g6"/><use y="459" xlink:href="#g2"/><use y="476" xlink:href="#g2"/><use y="493" xlink:href="#g2"/><use y="510" xlink:href="#g2"/><use y="527" xlink:href="#g2"/><use y="544" xlink:href="#g2"/><use y="561" xlink:href="#g2"/><use y="578" xlink:href="#g2"/><use y="595" xlink:href="#g2"/><use y="612" xlink:href="#g2"/><use y="629" xlink:href="#g2"/><use y="646" xlink:href="#g7"/><rect class="foreground" height="17" width="8" x="72" y="663"/><use y="663" xlink:href="#g8"/><use y="680" xlink:href="#g2"/><use y="697" xlink:href="#g2"/><use y="714" xlink:href="#g2"/><use y="731" xlink:href="#g2"/><use y="748" xlink:href="#g2"/><use y="765" xlink:href="#g2"/><use y="782" xlink:href="#g2"/><use y="799" xlink:href="#g2"/><use y="816" xlink:href="#g2"/><use y="833" xlink:href="#g2"/><rect class="color2" height="17" width="784" x="0" y="850"/><use y="850" xlink:href="#g5"/></g><g><use y="884" xlink:href="#g6"/><use y="901" xlink:href="#g2"/><use y="918" xlink:href="#g2"/><use y="935" xlink:href="#g2"/><use y="952" xlink:href="#g2"/><use y="969" xlink:href="#g2"/><use y="986" xlink:href="#g2"/><use y="1003" xlink:href="#g2"/><use y="1020" xlink:href="#g2"/><use y="1037" xlink:href="#g2"/><use y="1054" xlink:href="#g2"/><use y="1071" xlink:href="#g2"/><use y="1088" xlink:href="#g7"/><rect class="foreground" height="17" width="8" x="584" y="1105"/><use y="1105" xlink:href="#g9"/><use y="1122" xlink:href="#g2"/><use y="1139" xlink:href="#g2"/><use y="1156" xlink:href="#g2"/><use y="1173" xlink:href="#g2"/><use y="1190" xlink:href="#g2"/><use y="1207" xlink:href="#g2"/><use y="1224" xlink:href="#g2"/><use y="1241" xlink:href="#g2"/><use y="1258" xlink:href="#g2"/><use y="1275" xlink:href="#g2"/><rect class="color2" height="17" width="784" x="0" y="1292"/><use y="1292" xlink:href="#g5"/></g><g><use y="1326" xlink:href="#g6"/><use y="1343" xlink:href="#g2"/><use y="1360" xlink:href="#g2"/><use y="1377" xlink:href="#g2"/><use y="1394" xlink:href="#g2"/><use y="1411" xlink:href="#g2"/><use y="1428" xlink:href="#g2"/><use y="1445" xlink:href="#g2"/><use y="1462" xlink:href="#g2"/><use y="1479" xlink:href="#g2"/><use y="1496" xlink:href="#g2"/><use y="1513" xlink:href="#g2"/><use y="1530" xlink:href="#g7"/><use y="1547" xlink:href="#g10"/><rect class="foreground" height="17" width="8" x="0" y="1564"/><use y="1564" xlink:href="#g11"/><use y="1581" xlink:href="#g2"/><use y="1598" xlink:href="#g2"/><use y="1615" xlink:href="#g2"/><use y="1632" xlink:href="#g2"/><use y="1649" xlink:href="#g2"/><use y="1666" xlink:href="#g2"/><use y="1683" xlink:href="#g2"/><use y="1700" xlink:href="#g2"/><use y="1717" xlink:href="#g2"/><rect class="color2" height="17" width="784" x="0" y="1734"/><use y="1734" xlink:href="#g5"/></g><g><use y="1768" xlink:href="#g6"/><use y="1785" xlink:href="#g2"/><use y="1802" xlink:href="#g2"/><use y="1819" xlink:href="#g2"/><use y="1836" xlink:href="#g2"/><use y="1853" xlink:href="#g2"/><use y="1870" xlink:href="#g2"/><use y="1887" xlink:href="#g2"/><use y="1904" xlink:href="#g2"/><use y="1921" xlink:href="#g2"/><use y="1938" xlink:href="#g2"/><use y="1955" xlink:href="#g2"/><use y="1972" xlink:href="#g7"/><use y="1989" xlink:href="#g10"/><use y="2006" xlink:href="#g12"/><rect class="foreground" height="17" width="8" x="0" y="2023"/><use y="2023" xlink:href="#g11"/><use y="2040" xlink:href="#g2"/><use y="2057" xlink:href="#g2"/><use y="2074" xlink:href="#g2"/><use y="2091" xlink:href="#g2"/><use y="2108" xlink:href="#g2"/><use y="2125" xlink:href="#g2"/><use y="2142" xlink:href="#g2"/><use y="2159" xlink:href="#g2"/><rect class="color2" height="17" width="784" x="0" y="2176"/><use y="2176" xlink:href="#g5"/></g><g><use y="2210" xlink:href="#g6"/><use y="2227" xlink:href="#g2"/><use y="2244" xlink:href="#g2"/><use y="2261" xlink:href="#g2"/><use y="2278" xlink:href="#g2"/><use y="2295" xlink:href="#g2"/><use y="2312" xlink:href="#g2"/><use y="2329" xlink:href="#g2"/><use y="2346" xlink:href="#g2"/><use y="2363" xlink:href="#g2"/><use y="2380" xlink:href="#g2"/><use y="2397" xlink:href="#g2"/><use y="2414" xlink:href="#g7"/><use y="2431" xlink:href="#g10"/><use y="2448" xlink:href="#g12"/><use y="2465" xlink:href="#g13"/><rect class="foreground" height="17" width="8" x="0" y="2482"/><use y="2482" xlink:href="#g11"/><use y="2499" xlink:href="#g2"/><use y="2516" xlink:href="#g2"/><use y="2533" xlink:href="#g2"/><use y="2550" xlink:href="#g2"/><use y="2567" xlink:href="#g2"/><use y="2584" xlink:href="#g2"/><use y="2601" xlink:href="#g2"/><rect class="color2" height="17" width="784" x="0" y="2618"/><use y="2618" xlink:href="#g5"/></g><g><use y="2652" xlink:href="#g6"/><use y="2669" xlink:href="#g2"/><use y="2686" xlink:href="#g2"/><use y="2703" xlink:href="#g2"/><use y="2720" xlink:href="#g2"/><use y="2737" xlink:href="#g2"/><use y="2754" xlink:href="#g2"/><use y="2771" xlink:href="#g2"/><use y="2788" xlink:href="#g2"/><use y="2805" xlink:href="#g2"/><use y="2822" xlink:href="#g2"/><use y="2839" xlink:href="#g2"/><use y="2856" xlink:href="#g7"/><use y="2873" xlink:href="#g10"/><use y="2890" xlink:href="#g12"/><use y="2907" xlink:href="#g13"/><rect class="foreground" height="17" width="8" x="0" y="2924"/><use y="2924" xlink:href="#g11"/><use y="2941" xlink:href="#g2"/><use y="2958" xlink:href="#g2"/><use y="2975" xlink:href="#g2"/><use y="2992" xlink:href="#g2"/><use y="3009" xlink:href="#g2"/><use y="3026" xlink:href="#g2"/><use y="3043" xlink:href="#g2"/><rect class="color2" height="17" width="784" x="0" y="3060"/><use y="3060" xlink:href="#g14"/></g><g><rect class="foreground" height="17" width="8" x="72" y="3094"/><use y="3094" xlink:href="#g1"/><use y="3111" xlink:href="#g2"/><use y="3128" xlink:href="#g2"/><use y="3145" xlink:href="#g2"/><use y="3162" xlink:href="#g2"/><use y="3179" xlink:href="#g2"/><use y="3196" xlink:href="#g2"/><use y="3213" xlink:href="#g2"/><use y="3230" xlink:href="#g2"/><use y="3247" xlink:href="#g2"/><use y="3264" xlink:href="#g2"/><use y="3281" xlink:href="#g2"/><use y="3298" xlink:href="#g3"/><use y="3315" xlink:href="#g10"/><use y="3332" xlink:href="#g12"/><use y="3349" xlink:href="#g13"/><use y="3366" xlink:href="#g2"/><use y="3383" xlink:href="#g2"/><use y="3400" xlink:href="#g2"/><use y="3417" xlink:href="#g2"/><use y="3434" xlink:href="#g2"/><use y="3451" xlink:href="#g2"/><use y="3468" xlink:href="#g2"/><use y="3485" xlink:href="#g2"/><rect class="color2" height="17" width="784" x="0" y="3502"/><use y="3502" xlink:href="#g14"/></g><g><rect class="foreground" height="17" width="8" x="72" y="3536"/><use y="3536" xlink:href="#g1"/><use y="3553" xlink:href="#g2"/><use y="3570" xlink:href="#g2"/><use y="3587" xlink:href="#g2"/><use y="3604" xlink:href="#g2"/><use y="3621" xlink:href="#g2"/><use y="3638" xlink:href="#g2"/><use y="3655" xlink:href="#g2"/><use y="3672" xlink:href="#g2"/><use y="3689" xlink:href="#g2"/><use y="3706" xlink:href="#g2"/><use y="3723" xlink:href="#g2"/><use y="3740" xlink:href="#g3"/><use y="3757" xlink:href="#g10"/><use y="3774" xlink:href="#g12"/><use y="3791" xlink:href="#g13"/><use y="3808" xlink:href="#g2"/><use y="3825" xlink:href="#g2"/><use y="3842" xlink:href="#g2"/><use y="3859" xlink:href="#g2"/><use y="3876" xlink:href="#g2"/><use y="3893" xlink:href="#g2"/><use y="3910" xlink:href="#g2"/><use y="3927" xlink:href="#g2"/><rect class="color2" height="17" width="784" x="0" y="3944"/><use y="3944" xlink:href="#g5"/></g><g><rect class="foreground" height="17" width="8" x="344" y="3978"/><use y="3978" xlink:href="#g15"/><use y="3995" xlink:href="#g2"/><use y="4012" xlink:href="#g2"/><use y="4029" xlink:href="#g2"/><use y="4046" xlink:href="#g2"/><use y="4063" xlink:href="#g2"/><use y="4080" xlink:href="#g2"/><use y="4097" xlink:href="#g2"/><use y="4114" xlink:href="#g2"/><use y="4131" xlink:href="#g2"/><use y="4148" xlink:href="#g2"/><use y="4165" xlink:href="#g2"/><use y="4182" xlink:href="#g3"/><use y="4199" xlink:href="#g10"/><use y="4216" xlink:href="#g12"/><use y="4233" xlink:href="#g13"/><use y="4250" xlink:href="#g2"/><use y="4267" xlink:href="#g2"/><use y="4284" xlink:href="#g2"/><use y="4301" xlink:href="#g2"/><use y="4318" xlink:href="#g2"/><use y="4335" xlink:href="#g2"/><use y="4352" xlink:href="#g2"/><use y="4369" xlink:href="#g2"/><rect class="color2" height="17" width="784" x="0" y="4386"/><use y="4386" xlink:href="#g5"/></g><g><use y="4420" xlink:href="#g16"/><rect class="foreground" height="17" width="8" x="0" y="4437"/><use y="4437" xlink:href="#g11"/><use y="4454" xlink:href="#g2"/><use y="4471" xlink:href="#g2"/><use y="4488" xlink:href="#g2"/><use y="4505" xlink:href="#g2"/><use y="4522" xlink:href="#g2"/><use y="4539" xlink:href="#g2"/><use y="4556" xlink:href="#g2"/><use y="4573" xlink:href="#g2"/><use y="4590" xlink:href="#g2"/><use y="4607" xlink:href="#g2"/><use y="4624" xlink:href="#g3"/><use y="4641" xlink:href="#g10"/><use y="4658" xlink:href="#g12"/><use y="4675" xlink:href="#g13"/><use y="4692" xlink:href="#g2"/><use y="4709" xlink:href="#g2"/><use y="4726" xlink:href="#g2"/><use y="4743" xlink:href="#g2"/><use y="4760" xlink:href="#g2"/><use y="4777" xlink:href="#g2"/><use y="4794" xlink:href="#g2"/><use y="4811" xlink:href="#g2"/><rect class="color2" height="17" width="784" x="0" y="4828"/><use y="4828" xlink:href="#g5"/></g><g><use y="4862" xlink:href="#g16"/><rect class="foreground" height="17" width="8" x="0" y="4879"/><use y="4879" xlink:href="#g11"/><use y="4896" xlink:href="#g2"/><use y="4913" xlink:href="#g2"/><use y="4930" xlink:href="#g2"/><use y="4947" xlink:href="#g2"/><use y="4964" xlink:href="#g2"/><use y="4981" xlink:href="#g2"/><use y="4998" xlink:href="#g2"/><use y="5015" xlink:href="#g2"/><use y="5032" xlink:href="#g2"/><use y="5049" xlink:href="#g2"/><use y="5066" xlink:href="#g3"/><use y="5083" xlink:href="#g10"/><use y="5100" xlink:href="#g12"/><use y="5117" xlink:href="#g13"/><use y="5134" xlink:href="#g17"/><use y="5151" xlink:href="#g2"/><use y="5168" xlink:href="#g2"/><use y="5185" xlink:href="#g2"/><use y="5202" xlink:href="#g2"/><use y="5219" xlink:href="#g2"/><use y="5236" xlink:href="#g2"/><use y="5253" xlink:href="#g2"/><rect class="color2" height="17" width="784" x="0" y="5270"/><use y="5270" xlink:href="#g5"/></g><g><use y="5304" xlink:href="#g16"/><use y="5321" xlink:href="#g18"/><use y="5338" xlink:href="#g19"/><use y="5355" xlink:href="#g20"/><rect class="foreground" height="17" width="8" x="0" y="5372"/><use y="5372" xlink:href="#g11"/><use y="5389" xlink:href="#g2"/><use y="5406" xlink:href="#g2"/><use y="5423" xlink:href="#g2"/><use y="5440" xlink:href="#g2"/><use y="5457" xlink:href="#g2"/><use y="5474" xlink:href="#g2"/><use y="5491" xlink:href="#g2"/><use y="5508" xlink:href="#g3"/><use y="5525" xlink:href="#g10"/><use y="5542" xlink:href="#g12"/><use y="5559" xlink:href="#g13"/><use y="5576" xlink:href="#g17"/><use y="5593" xlink:href="#g21"/><use y="5610" xlink:href="#g22"/><use y="5627" xlink:href="#g2"/><use y="5644" xlink:href="#g2"/><use y="5661" xlink:href="#g2"/><use y="5678" xlink:href="#g2"/><use y="5695" xlink:href="#g2"/><rect class="color2" height="17" width="784" x="0" y="5712"/><use y="5712" xlink:href="#g5"/></g><g><use y="5746" xlink:href="#g16"/><use y="5763" xlink:href="#g18"/><use y="5780" xlink:href="#g19"/><use y="5797" xlink:href="#g20"/><rect class="foreground" height="17" width="8" x="0" y="5814"/><use y="5814" xlink:href="#g11"/><use y="5831" xlink:href="#g2"/><use y="5848" xlink:href="#g2"/><use y="5865" xlink:href="#g2"/><use y="5882" xlink:href="#g2"/><use y="5899" xlink:href="#g2"/><use y="5916" xlink:href="#g2"/><use y="5933" xlink:href="#g2"/><use y="5950" xlink:href="#g3"/><use y="5967" xlink:href="#g10"/><use y="5984" xlink:href="#g12"/><use y="6001" xlink:href="#g13"/><use y="6018" xlink:href="#g17"/><use y="6035" xlink:href="#g21"/><use y="6052" xlink:href="#g22"/><use y="6069" xlink:href="#g2"/><use y="6086" xlink:href="#g2"/><use y="6103" xlink:href="#g2"/><use y="6120" xlink:href="#g2"/><use y="6137" xlink:href="#g2"/><rect class="color2" height="17" width="784" x="0" y="6154"/><use y="6154" xlink:href="#g14"/></g><g><use y="6188" xlink:href="#g16"/><use y="6205" xlink:href="#g18"/><use y="6222" xlink:href="#g19"/><use y="6239" xlink:href="#g20"/><use y="6256" xlink:href="#g2"/><use y="6273" xlink:href="#g2"/><use y="6290" xlink:href="#g2"/><use y="6307" xlink:href="#g2"/><use y="6324" xlink:href="#g2"/><use y="6341" xlink:href="#g2"/><use y="6358" xlink:href="#g2"/><use y="6375" xlink:href="#g2"/><use y="6392" xlink:href="#g7"/><use y="6409" xlink:href="#g10"/><use y="6426" xlink:href="#g12"/><use y="6443" xlink:href="#g13"/><use y="6460" xlink:href="#g17"/><use y="6477" xlink:href="#g21"/><use y="6494" xlink:href="#g22"/><rect class="foreground" height="17" width="8" x="0" y="6511"/><use y="6511" xlink:href="#g11"/><use y="6528" xlink:href="#g2"/><use y="6545" xlink:href="#g2"/><use y="6562" xlink:href="#g2"/><use y="6579" xlink:href="#g2"/><rect class="color2" height="17" width="784" x="0" y="6596"/><use y="6596" xlink:href="#g14"/></g><g><use y="6630" xlink:href="#g16"/><use y="6647" xlink:href="#g18"/><use y="6664" xlink:href="#g19"/><use y="6681" xlink:href="#g20"/><use y="6698" xlink:href="#g2"/><use y="6715" xlink:href="#g2"/><use y="6732" xlink:href="#g2"/><use y="6749" xlink:href="#g2"/><use y="6766" xlink:href="#g2"/><use y="6783" xlink:href="#g2"/><use y="6800" xlink:href="#g2"/><use y="6817" xlink:href="#g2"/><use y="6834" xlink:href="#g7"/><use y="6851" xlink:href="#g10"/><use y="6868" xlink:href="#g12"/><use y="6885" xlink:href="#g13"/><use y="6902" xlink:href="#g17"/><use y="6919" xlink:href="#g21"/><use y="6936" xlink:href="#g22"/><rect class="foreground" height="17" width="8" x="16" y="6953"/><use y="6953" xlink:href="#g23"/><use y="6970" xlink:href="#g2"/><use y="6987" xlink:href="#g2"/><use y="7004" xlink:href="#g2"/><use y="7021" xlink:href="#g2"/><rect class="color2" height="17" width="784" x="0" y="7038"/><use y="7038" xlink:href="#g14"/></g><g><use y="7072" xlink:href="#g16"/><use y="7089" xlink:href="#g18"/><use y="7106" xlink:href="#g19"/><use y="7123" xlink:href="#g20"/><use y="7140" xlink:href="#g24"/><use y="7157" xlink:href="#g25"/><use y="7174" xlink:href="#g2"/><use y="7191" xlink:href="#g2"/><use y="7208" xlink:href="#g2"/><use y="7225" xlink:href="#g2"/><use y="7242" xlink:href="#g2"/><use y="7259" xlink:href="#g2"/><use y="7276" xlink:href="#g7"/><use y="7293" xlink:href="#g10"/><use y="7310" xlink:href="#g12"/><use y="7327" xlink:href="#g13"/><use y="7344" xlink:href="#g17"/><use y="7361" xlink:href="#g21"/><use y="7378" xlink:href="#g22"/><use y="7395" xlink:href="#g26"/><rect class="foreground" height="17" width="8" x="72" y="7412"/><use y="7412" xlink:href="#g8"/><use y="7429" xlink:href="#g2"/><use y="7446" xlink:href="#g2"/><use y="7463" xlink:href="#g2"/><rect class="color2" height="17" width="784" x="0" y="7480"/><use y="7480" xlink:href="#g14"/></g><g><use y="7514" xlink:href="#g16"/><use y="7531" xlink:href="#g18"/><use y="7548" xlink:href="#g19"/><use y="7565" xlink:href="#g20"/><use y="7582" xlink:href="#g24"/><use y="7599" xlink:href="#g25"/><use y="7616" xlink:href="#g2"/><use y="7633" xlink:href="#g2"/><use y="7650" xlink:href="#g2"/><use y="7667" xlink:href="#g2"/><use y="7684" xlink:href="#g2"/><use y="7701" xlink:href="#g2"/><use y="7718" xlink:href="#g7"/><use y="7735" xlink:href="#g10"/><use y="7752" xlink:href="#g12"/><use y="7769" xlink:href="#g13"/><use y="7786" xlink:href="#g17"/><use y="7803" xlink:href="#g21"/><use y="7820" xlink:href="#g22"/><use y="7837" xlink:href="#g26"/><rect class="foreground" height="17" width="8" x="72" y="7854"/><use y="7854" xlink:href="#g8"/><use y="7871" xlink:href="#g2"/><use y="7888" xlink:href="#g2"/><use y="7905" xlink:href="#g2"/><rect class="color2" height="17" width="784" x="0" y="7922"/><use y="7922" xlink:href="#g5"/></g><g><use y="7956" xlink:href="#g16"/><use y="7973" xlink:href="#g18"/><use y="7990" xlink:href="#g19"/><use y="8007" xlink:href="#g20"/><use y="8024" xlink:href="#g24"/><use y="8041" xlink:href="#g25"/><use y="8058" xlink:href="#g2"/><use y="8075" xlink:href="#g2"/><use y="8092" xlink:href="#g2"/><use y="8109" xlink:href="#g2"/><use y="8126" xlink:href="#g2"/><use y="8143" xlink:href="#g2"/><use y="8160" xlink:href="#g7"/><use y="8177" xlink:href="#g10"/><use y="8194" xlink:href="#g12"/><use y="8211" xlink:href="#g13"/><use y="8228" xlink:href="#g17"/><use y="8245" xlink:href="#g21"/><use y="8262" xlink:href="#g22"/><use y="8279" xlink:href="#g26"/><use y="8296" xlink:href="#g4"/><rect class="foreground" height="17" width="8" x="72" y="8313"/><use y="8313" xlink:href="#g8"/><use y="8330" xlink:href="#g2"/><use y="8347" xlink:href="#g2"/><rect class="color2" height="17" width="784" x="0" y="8364"/><use y="8364" xlink:href="#g5"/></g><g><use y="8398" xlink:href="#g16"/><use y="8415" xlink:href="#g18"/><use y="8432" xlink:href="#g19"/><use y="8449" xlink:href="#g20"/><use y="8466" xlink:href="#g24"/><use y="8483" xlink:href="#g25"/><use y="8500" xlink:href="#g2"/><use y="8517" xlink:href="#g2"/><use y="8534" xlink:href="#g2"/><use y="8551" xlink:href="#g2"/><use y="8568" xlink:href="#g2"/><use y="8585" xlink:href="#g2"/><use y="8602" xlink:href="#g7"/><use y="8619" xlink:href="#g10"/><use y="8636" xlink:href="#g12"/><use y="8653" xlink:href="#g13"/><use y="8670" xlink:href="#g17"/><use y="8687" xlink:href="#g21"/><use y="8704" xlink:href="#g22"/><use y="8721" xlink:href="#g26"/><use y="8738" xlink:href="#g4"/><use y="8755" xlink:href="#g4"/><rect class="foreground" height="17" width="8" x="0" y="8772"/><use y="8772" xlink:href="#g11"/><use y="8789" xlink:href="#g2"/><rect class="color2" height="17" width="784" x="0" y="8806"/><use y="8806" xlink:href="#g5"/></g><g><use y="8840" xlink:href="#g16"/><use y="8857" xlink:href="#g18"/><use y="8874" xlink:href="#g19"/><use y="8891" xlink:href="#g20"/><use y="8908" xlink:href="#g24"/><use y="8925" xlink:href="#g25"/><use y="8942" xlink:href="#g2"/><use y="8959" xlink:href="#g2"/><use y="8976" xlink:href="#g2"/><use y="8993" xlink:href="#g2"/><use y="9010" xlink:href="#g2"/><use y="9027" xlink:href="#g2"/><use y="9044" xlink:href="#g7"/><use y="9061" xlink:href="#g10"/><use y="9078" xlink:href="#g12"/><use y="9095" xlink:href="#g13"/><use y="9112" xlink:href="#g17"/><use y="9129" xlink:href="#g21"/><use y="9146" xlink:href="#g22"/><use y="9163" xlink:href="#g26"/><use y="9180" xlink:href="#g4"/><use y="9197" xlink:href="#g4"/><rect class="foreground" height="17" width="8" x="72" y="9214"/><use y="9214" xlink:href="#g8"/><use y="9231" xlink:href="#g2"/><rect class="color2" height="17" width="784" x="0" y="9248"/><use y="9248" xlink:href="#g5"/></g><g><use y="9282" xlink:href="#g16"/><use y="9299" xlink:href="#g18"/><use y="9316" xlink:href="#g19"/><use y="9333" xlink:href="#g20"/><use y="9350" xlink:href="#g24"/><use y="9367" xlink:href="#g25"/><use y="9384" xlink:href="#g2"/><use y="9401" xlink:href="#g2"/><use y="9418" xlink:href="#g2"/><use y="9435" xlink:href="#g2"/><use y="9452" xlink:href="#g2"/><use y="9469" xlink:href="#g2"/><use y="9486" xlink:href="#g7"/><use y="9503" xlink:href="#g10"/><use y="9520" xlink:href="#g12"/><use y="9537" xlink:href="#g13"/><use y="9554" xlink:href="#g17"/><use y="9571" xlink:href="#g21"/><use y="9588" xlink:href="#g22"/><use y="9605" xlink:href="#g26"/><use y="9622" xlink:href="#g4"/><use y="9639" xlink:href="#g4"/><use y="9656" xlink:href="#g4"/><rect class="foreground" height="17" width="8" x="0" y="9673"/><use y="9673" xlink:href="#g11"/><rect class="color2" height="17" width="784" x="0" y="9690"/><use y="9690" xlink:href="#g5"/></g><g><use y="9724" xlink:href="#g16"/><use y="9741" xlink:href="#g18"/><use y="9758" xlink:href="#g19"/><use y="9775" xlink:href="#g20"/><use y="9792" xlink:href="#g24"/><use y="9809" xlink:href="#g25"/><use y="9826" xlink:href="#g2"/><use y="9843" xlink:href="#g2"/><use y="9860" xlink:href="#g2"/><use y="9877" xlink:href="#g2"/><use y="9894" xlink:href="#g2"/><use y="9911" xlink:href="#g2"/><use y="9928" xlink:href="#g7"/><use y="9945" xlink:href="#g10"/><use y="9962" xlink:href="#g12"/><use y="9979" xlink:href="#g13"/><use y="9996" xlink:href="#g17"/><use y="10013" xlink:href="#g21"/><use y="10030" xlink:href="#g22"/><use y="10047" xlink:href="#g26"/><use y="10064" xlink:href="#g4"/><use y="10081" xlink:href="#g4"/><use y="10098" xlink:href="#g4"/><rect class="foreground" height="17" width="8" x="72" y="10115"/><use y="10115" xlink:href="#g8"/><rect class="color2" height="17" width="784" x="0" y="10132"/><use y="10132" xlink:href="#g5"/></g><g><use y="10166" xlink:href="#g16"/><use y="10183" xlink:href="#g18"/><use y="10200" xlink:href="#g19"/><use y="10217" xlink:href="#g20"/><use y="10234" xlink:href="#g24"/><use y="10251" xlink:href="#g25"/><use y="10268" xlink:href="#g2"/><use y="10285" xlink:href="#g2"/><use y="10302" xlink:href="#g2"/><use y="10319" xlink:href="#g2"/><use y="10336" xlink:href="#g2"/><use y="10353" xlink:href="#g2"/><use y="10370" xlink:href="#g7"/><use y="10387" xlink:href="#g10"/><use y="10404" xlink:href="#g12"/><use y="10421" xlink:href="#g13"/><use y="10438" xlink:href="#g17"/><use y="10455" xlink:href="#g21"/><use y="10472" xlink:href="#g22"/><use y="10489" xlink:href="#g26"/><use y="10506" xlink:href="#g4"/><use y="10523" xlink:href="#g4"/><use y="10540" xlink:href="#g4"/><rect class="foreground" height="17" width="8" x="584" y="10557"/><use y="10557" xlink:href="#g9"/><rect class="color2" height="17" width="784" x="0" y="10574"/><use y="10574" xlink:href="#g5"/></g><g><use y="10608" xlink:href="#g16"/><use y="10625" xlink:href="#g18"/><use y="10642" xlink:href="#g19"/><use y="10659" xlink:href="#g20"/><use y="10676" xlink:href="#g24"/><use y="10693" xlink:href="#g25"/><use y="10710" xlink:href="#g2"/><use y="10727" xlink:href="#g2"/><use y="10744" xlink:href="#g2"/><use y="10761" xlink:href="#g2"/><use y="10778" xlink:href="#g2"/><use y="10795" xlink:href="#g2"/><use y="10812" xlink:href="#g7"/><use y="10829" xlink:href="#g12"/><use y="10846" xlink:href="#g13"/><use y="10863" xlink:href="#g17"/><use y="10880" xlink:href="#g21"/><use y="10897" xlink:href="#g22"/><use y="10914" xlink:href="#g26"/><use y="10931" xlink:href="#g4"/><use y="10948" xlink:href="#g4"/><use y="10965" xlink:href="#g4"/><use y="10982" xlink:href="#g10"/><rect class="foreground" height="17" width="8" x="0" y="10999"/><use y="10999" xlink:href="#g27"/><rect class="color2" height="17" width="784" x="0" y="11016"/><use y="11016" xlink:href="#g5"/></g><g><use y="11050" xlink:href="#g16"/><use y="11067" xlink:href="#g18"/><use y="11084" xlink:href="#g19"/><use y="11101" xlink:href="#g20"/><use y="11118" xlink:href="#g24"/><use y="11135" xlink:href="#g25"/><use y="11152" xlink:href="#g2"/><use y="11169" xlink:href="#g2"/><use y="11186" xlink:href="#g2"/><use y="11203" xlink:href="#g2"/><use y="11220" xlink:href="#g2"/><use y="11237" xlink:href="#g2"/><use y="11254" xlink:href="#g7"/><use y="11271" xlink:href="#g13"/><use y="11288" xlink:href="#g17"/><use y="11305" xlink:href="#g21"/><use y="11322" xlink:href="#g22"/><use y="11339" xlink:href="#g26"/><use y="11356" xlink:href="#g4"/><use y="11373" xlink:href="#g4"/><use y="11390" xlink:href="#g4"/><use y="11407" xlink:href="#g10"/><use y="11424" xlink:href="#g28"/><rect class="foreground" height="17" width="8" x="0" y="11441"/><use y="11441" xlink:href="#g27"/><rect class="color2" height="17" width="784" x="0" y="11458"/><use y="11458" xlink:href="#g5"/></g><g><use y="11492" xlink:href="#g16"/><use y="11509" xlink:href="#g18"/><use y="11526" xlink:href="#g19"/><use y="11543" xlink:href="#g20"/><use y="11560" xlink:href="#g24"/><use y="11577" xlink:href="#g25"/><use y="11594" xlink:href="#g2"/><use y="11611" xlink:href="#g2"/><use y="11628" xlink:href="#g2"/><use y="11645" xlink:href="#g2"/><use y="11662" xlink:href="#g2"/><use y="11679" xlink:href="#g2"/><use y="11696" xlink:href="#g7"/><use y="11713" xlink:href="#g17"/><use y="11730" xlink:href="#g21"/><use y="11747" xlink:href="#g22"/><use y="11764" xlink:href="#g26"/><use y="11781" xlink:href="#g4"/><use y="11798" xlink:href="#g4"/><use y="11815" xlink:href="#g4"/><use y="11832" xlink:href="#g10"/><use y="11849" xlink:href="#g28"/><use y="11866" xlink:href="#g29"/><rect class="foreground" height="17" width="8" x="0" y="11883"/><use y="11883" xlink:href="#g27"/><rect class="color2" height="17" width="784" x="0" y="11900"/><use y="11900" xlink:href="#g5"/></g><g><use y="11934" xlink:href="#g16"/><use y="11951" xlink:href="#g18"/><use y="11968" xlink:href="#g19"/><use y="11985" xlink:href="#g20"/><use y="12002" xlink:href="#g24"/><use y="12019" xlink:href="#g25"/><use y="12036" xlink:href="#g30"/><use y="12053" xlink:href="#g2"/><use y="12070" xlink:href="#g2"/><use y="12087" xlink:href="#g2"/><use y="12104" xlink:href="#g2"/><use y="12121" xlink:href="#g2"/><use y="12138" xlink:href="#g7"/><use y="12155" xlink:href="#g17"/><use y="12172" xlink:href="#g21"/><use y="12189" xlink:href="#g22"/><use y="12206" xlink:href="#g26"/><use y="12223" xlink:href="#g4"/><use y="12240" xlink:href="#g4"/><use y="12257" xlink:href="#g4"/><use y="12274" xlink:href="#g10"/><use y="12291" xlink:href="#g28"/><use y="12308" xlink:href="#g29"/><rect class="foreground" height="17" width="8" x="0" y="12325"/><use y="12325" xlink:href="#g27"/><rect class="color2" height="17" width="784" x="0" y="12342"/><use y="12342" xlink:href="#g14"/></g><g><use y="12376" xlink:href="#g16"/><use y="12393" xlink:href="#g18"/><use y="12410" xlink:href="#g19"/><use y="12427" xlink:href="#g20"/><use y="12444" xlink:href="#g24"/><use y="12461" xlink:href="#g25"/><use y="12478" xlink:href="#g30"/><use y="12495" xlink:href="#g31"/><use y="12512" xlink:href="#g6"/><use y="12529" xlink:href="#g2"/><use y="12546" xlink:href="#g2"/><use y="12563" xlink:href="#g2"/><use y="12580" xlink:href="#g7"/><use y="12597" xlink:href="#g29"/><use y="12614" xlink:href="#g32"/><use y="12631" xlink:href="#g33"/><use y="12648" xlink:href="#g34"/><use y="12665" xlink:href="#g35"/><use y="12682" xlink:href="#g36"/><use y="12699" xlink:href="#g37"/><use y="12716" xlink:href="#g35"/><use y="12733" xlink:href="#g36"/><use y="12750" xlink:href="#g37"/><rect class="foreground" height="17" width="8" x="0" y="12767"/><use y="12767" xlink:href="#g27"/><rect class="color2" height="17" width="784" x="0" y="12784"/><use y="12784" xlink:href="#g14"/></g><g><use y="12818" xlink:href="#g16"/><use y="12835" xlink:href="#g18"/><use y="12852" xlink:href="#g19"/><use y="12869" xlink:href="#g20"/><use y="12886" xlink:href="#g24"/><use y="12903" xlink:href="#g25"/><use y="12920" xlink:href="#g30"/><use y="12937" xlink:href="#g31"/><use y="12954" xlink:href="#g6"/><use y="12971" xlink:href="#g2"/><use y="12988" xlink:href="#g2"/><use y="13005" xlink:href="#g2"/><use y="13022" xlink:href="#g7"/><use y="13039" xlink:href="#g29"/><use y="13056" xlink:href="#g32"/><use y="13073" xlink:href="#g33"/><use y="13090" xlink:href="#g34"/><use y="13107" xlink:href="#g35"/><use y="13124" xlink:href="#g36"/><use y="13141" xlink:href="#g37"/><use y="13158" xlink:href="#g35"/><use y="13175" xlink:href="#g36"/><use y="13192" xlink:href="#g37"/><rect class="foreground" height="17" width="8" x="0" y="13209"/><use y="13209" xlink:href="#g27"/><rect class="color2" height="17" width="784" x="0" y="13226"/><use y="13226" xlink:href="#g38"/></g><g><rect class="foreground" height="17" width="8" x="0" y="13260"/><use y="13260" xlink:href="#g11"/><use y="13277" xlink:href="#g2"/><use y="13294" xlink:href="#g2"/><use y="13311" xlink:href="#g2"/><use y="13328" xlink:href="#g2"/><use y="13345" xlink:href="#g2"/><use y="13362" xlink:href="#g2"/><use y="13379" xlink:href="#g2"/><use y="13396" xlink:href="#g2"/><use y="13413" xlink:href="#g2"/><use y="13430" xlink:href="#g2"/><use y="13447" xlink:href="#g2"/><use y="13464" xlink:href="#g2"/><use y="13481" xlink:href="#g39"/><use y="13498" xlink:href="#g40"/><use y="13515" xlink:href="#g41"/><use y="13532" xlink:href="#g42"/><use y="13549" xlink:href="#g43"/><use y="13566" xlink:href="#g44"/><use y="13583" xlink:href="#g42"/><use y="13600" xlink:href="#g43"/><use y="13617" xlink:href="#g44"/><use y="13634" xlink:href="#g42"/><use y="13668" xlink:href="#g2"/></g><g><use y="13702" xlink:href="#g45"/><rect class="foreground" height="17" width="8" x="0" y="13719"/><use y="13719" xlink:href="#g11"/><use y="13736" xlink:href="#g2"/><use y="13753" xlink:href="#g2"/><use y="13770" xlink:href="#g2"/><use y="13787" xlink:href="#g2"/><use y="13804" xlink:href="#g2"/><use y="13821" xlink:href="#g2"/><use y="13838" xlink:href="#g2"/><use y="13855" xlink:href="#g2"/><use y="13872" xlink:href="#g2"/><use y="13889" xlink:href="#g2"/><use y="13906" xlink:href="#g2"/><use y="13923" xlink:href="#g39"/><use y="13940" xlink:href="#g40"/><use y="13957" xlink:href="#g41"/><use y="13974" xlink:href="#g42"/><use y="13991" xlink:href="#g43"/><use y="14008" xlink:href="#g44"/><use y="14025" xlink:href="#g42"/><use y="14042" xlink:href="#g43"/><use y="14059" xlink:href="#g44"/><use y="14076" xlink:href="#g42"/><use y="14110" xlink:href="#g2"/></g></g></svg>
</svg>